<svg xmlns="http://www.w3.org/2000/svg" xmlns:xlink="http://www.w3.org/1999/xlink" width="290.432" height="48.312" viewBox="0 0 290.432 48.312" class="w-full max-w-[270px]"><defs><clipPath id="logo-icon-main"><rect id="Rectangle_4834" data-name="Rectangle 4834" width="290.432" height="48.312" fill="none"></rect></clipPath></defs><g id="Group_9145" data-name="Group 9145" clip-path="url(#logo-icon-main)"><path id="Path_25895" data-name="Path 25895" d="M254.984,72.314a.579.579,0,0,1,.147.413V90.871a9.348,9.348,0,0,1-1.248,4.846A8.566,8.566,0,0,1,250.394,99a10.844,10.844,0,0,1-5.092,1.17,16.393,16.393,0,0,1-3.725-.432,12.563,12.563,0,0,1-3.214-1.18.458.458,0,0,1-.256-.432,1.069,1.069,0,0,1,.1-.393l.826-1.926a.484.484,0,0,1,.471-.275.792.792,0,0,1,.315.059,18.6,18.6,0,0,0,2.684.806,12.7,12.7,0,0,0,2.821.354A6.377,6.377,0,0,0,248.447,96a5.281,5.281,0,0,0,2.1-2.084,6.376,6.376,0,0,0,.766-3.086l.039-2.28a8.847,8.847,0,0,1-7.214,3.6,9.3,9.3,0,0,1-4.914-1.346,9.708,9.708,0,0,1-3.5-3.637,10.132,10.132,0,0,1-1.278-5.023,11.145,11.145,0,0,1,1.268-5.327A9.569,9.569,0,0,1,239.2,73.08a9.233,9.233,0,0,1,4.924-1.356,8.778,8.778,0,0,1,4.305,1.071,8.937,8.937,0,0,1,3.2,3l.708-3.224a.572.572,0,0,1,.57-.413h1.671a.527.527,0,0,1,.4.157M248.192,87.49a6.244,6.244,0,0,0,3.2-5.5,6.423,6.423,0,0,0-.855-3.283,6.172,6.172,0,0,0-2.359-2.32,6.721,6.721,0,0,0-3.352-.845,6.481,6.481,0,0,0-3.283.845,6.086,6.086,0,0,0-2.31,2.32,6.539,6.539,0,0,0-.835,3.283,6.262,6.262,0,0,0,.845,3.2,6.2,6.2,0,0,0,2.32,2.3,6.48,6.48,0,0,0,3.283.845,6.668,6.668,0,0,0,3.342-.845" transform="translate(-182.013 -55.682)" fill="#484848"></path><path id="Path_25896" data-name="Path 25896" d="M364.512,47.46V66.293a.578.578,0,0,1-.147.413.525.525,0,0,1-.4.157H362.29a.593.593,0,0,1-.57-.413l-.727-3.322a7.166,7.166,0,0,1-1.73,2.162,8.384,8.384,0,0,1-2.5,1.474,8.364,8.364,0,0,1-6.959-.5,7.113,7.113,0,0,1-2.781-2.919,9.279,9.279,0,0,1-.993-4.384V47.48a.509.509,0,0,1,.55-.55h2.831a.509.509,0,0,1,.55.55V58.744a5.238,5.238,0,0,0,.629,2.575,4.385,4.385,0,0,0,1.789,1.769,5.473,5.473,0,0,0,2.654.629,5.634,5.634,0,0,0,2.762-.7,5.447,5.447,0,0,0,2.015-1.877,4.656,4.656,0,0,0,.747-2.536V47.46a.509.509,0,0,1,.55-.55h2.85a.487.487,0,0,1,.55.55m-14.35-5.032A1.878,1.878,0,0,1,351.5,39.2a1.789,1.789,0,0,1,1.327.55,1.923,1.923,0,0,1,0,2.673,1.788,1.788,0,0,1-1.327.55,1.819,1.819,0,0,1-1.337-.55m7.028-.02a1.875,1.875,0,0,1-.01-2.664,1.86,1.86,0,0,1,1.357-.541,1.781,1.781,0,0,1,1.307.541,1.8,1.8,0,0,1,.541,1.327,1.837,1.837,0,0,1-.541,1.337,1.765,1.765,0,0,1-1.307.55,1.852,1.852,0,0,1-1.347-.55" transform="translate(-268.638 -30.435)" fill="#484848"></path><path id="Path_25897" data-name="Path 25897" d="M455.67,73.864a.4.4,0,0,1,.138.314.588.588,0,0,1-.078.3l-8.768,19.088a1.18,1.18,0,0,1-.3.383.709.709,0,0,1-.442.128H446.1a.708.708,0,0,1-.442-.128,1,1,0,0,1-.285-.383l-8.787-19.088a.841.841,0,0,1-.059-.3.407.407,0,0,1,.128-.314.459.459,0,0,1,.324-.118H440.2a.721.721,0,0,1,.433.128.831.831,0,0,1,.275.364l5.249,12.522L451.4,74.237a.887.887,0,0,1,.285-.354.7.7,0,0,1,.423-.138h3.224a.5.5,0,0,1,.334.118" transform="translate(-338.888 -57.252)" fill="#484848"></path><path id="Path_25898" data-name="Path 25898" d="M537.2,73.07a9.3,9.3,0,0,1,3.529,3.45,9.466,9.466,0,0,1,1.288,4.885,3.008,3.008,0,0,1-.265,1.229,2.642,2.642,0,0,1-.727.983,1.576,1.576,0,0,1-1.032.383H526.129a5.638,5.638,0,0,0,1.219,2.477,6.562,6.562,0,0,0,2.3,1.74,6.807,6.807,0,0,0,5.4.157,7.934,7.934,0,0,0,2.27-1.288.609.609,0,0,1,.826.1l1.533,2a.663.663,0,0,1,.118.373.643.643,0,0,1-.2.472,9.98,9.98,0,0,1-3.293,1.848,11.376,11.376,0,0,1-3.8.708,10.432,10.432,0,0,1-5.3-1.386,10.278,10.278,0,0,1-3.8-3.764,10.106,10.106,0,0,1-1.4-5.209,10.465,10.465,0,0,1,1.357-5.259,10.114,10.114,0,0,1,3.7-3.774,9.917,9.917,0,0,1,5.15-1.386A10.025,10.025,0,0,1,537.2,73.07M529.4,76.137a6.029,6.029,0,0,0-2.1,1.75,6.213,6.213,0,0,0-1.15,2.516H538.14a5.683,5.683,0,0,0-3.194-4.276,6.465,6.465,0,0,0-2.841-.619,5.92,5.92,0,0,0-2.7.629" transform="translate(-405.248 -55.75)" fill="#484848"></path><path id="Path_25899" data-name="Path 25899" d="M640.289,72.746a7.041,7.041,0,0,1,2.782,2.919,9.344,9.344,0,0,1,.993,4.393v11.48a.509.509,0,0,1-.55.55h-2.831a.509.509,0,0,1-.55-.55V80.275A5.244,5.244,0,0,0,639.5,77.7a4.395,4.395,0,0,0-1.789-1.769,5.481,5.481,0,0,0-2.654-.629,5.637,5.637,0,0,0-2.762.7,5.449,5.449,0,0,0-2.015,1.877,4.653,4.653,0,0,0-.747,2.536V91.559a.509.509,0,0,1-.55.55h-2.85a.486.486,0,0,1-.55-.55V72.726a.58.58,0,0,1,.148-.413.526.526,0,0,1,.4-.157h1.671a.572.572,0,0,1,.57.413l.727,3.322a7.155,7.155,0,0,1,1.73-2.162,8.373,8.373,0,0,1,2.5-1.474,8.409,8.409,0,0,1,6.959.491" transform="translate(-485.664 -55.682)" fill="#484848"></path><path id="Path_25900" data-name="Path 25900" d="M731.168,29.432V58.349a.48.48,0,0,1-.531.531h-2.87a.469.469,0,0,1-.531-.531V29.432q0-.511.531-.511h2.87q.531,0,.531.511" transform="translate(-564.579 -22.452)" fill="#484848"></path><path id="Path_25901" data-name="Path 25901" d="M774.21,73.07a9.3,9.3,0,0,1,3.529,3.45,9.466,9.466,0,0,1,1.288,4.885,3.006,3.006,0,0,1-.266,1.229,2.641,2.641,0,0,1-.727.983A1.577,1.577,0,0,1,777,84H763.142a5.638,5.638,0,0,0,1.219,2.477,6.557,6.557,0,0,0,2.3,1.74,6.806,6.806,0,0,0,5.4.157,7.934,7.934,0,0,0,2.27-1.288.609.609,0,0,1,.826.1l1.533,2a.664.664,0,0,1,.118.373.643.643,0,0,1-.2.472,9.98,9.98,0,0,1-3.293,1.848,11.378,11.378,0,0,1-3.8.708,10.432,10.432,0,0,1-5.3-1.386,10.279,10.279,0,0,1-3.8-3.764,10.106,10.106,0,0,1-1.4-5.209,10.465,10.465,0,0,1,1.357-5.259,10.114,10.114,0,0,1,3.7-3.774,9.917,9.917,0,0,1,5.15-1.386,10.026,10.026,0,0,1,4.993,1.258m-7.794,3.066a6.028,6.028,0,0,0-2.1,1.75,6.211,6.211,0,0,0-1.15,2.516h11.991a5.684,5.684,0,0,0-3.194-4.276,6.465,6.465,0,0,0-2.841-.619,5.92,5.92,0,0,0-2.7.629" transform="translate(-589.25 -55.75)" fill="#484848"></path><path id="Path_25902" data-name="Path 25902" d="M882.1,58.388a.373.373,0,0,1-.108.256.547.547,0,0,1-.3.157h-3.2a.587.587,0,0,1-.393-.049,1.294,1.294,0,0,1-.354-.344l-7.824-9.849-3.381,3.322v6.467a.48.48,0,0,1-.531.531h-2.87a.469.469,0,0,1-.531-.531V29.432q0-.511.531-.511H866q.531,0,.531.511V47.911l8.492-8.689a.819.819,0,0,1,.57-.315,1.01,1.01,0,0,1,.315.059h3.067q.413.059.413.393a.609.609,0,0,1-.157.374l-6.291,6.723,9,11.539a.691.691,0,0,1,.157.393" transform="translate(-669.666 -22.452)" fill="#484848"></path><path id="Path_25903" data-name="Path 25903" d="M963.033,46.5a.533.533,0,0,1,.138.393V65.786q0,.511-.531.511h-2.87q-.531,0-.531-.511V46.895a.469.469,0,0,1,.531-.531h2.87a.533.533,0,0,1,.393.138m-3.165-4.8a1.819,1.819,0,0,1-.55-1.337,1.788,1.788,0,0,1,.55-1.327A1.837,1.837,0,0,1,961.2,38.5a1.846,1.846,0,0,1,1.867,1.867,1.836,1.836,0,0,1-.541,1.337,1.788,1.788,0,0,1-1.327.55,1.819,1.819,0,0,1-1.337-.55" transform="translate(-744.691 -29.89)" fill="#484848"></path><path id="Path_25904" data-name="Path 25904" d="M1011.247,73.974a.635.635,0,0,1-.118.354l-1.219,1.985a.564.564,0,0,1-.472.295.608.608,0,0,1-.374-.157,5.832,5.832,0,0,0-1.533-.894,4.258,4.258,0,0,0-1.553-.324,4.823,4.823,0,0,0-2.644.757,5.416,5.416,0,0,0-1.878,2.025,5.658,5.658,0,0,0-.688,2.742V91.627a.509.509,0,0,1-.55.55h-2.85a.486.486,0,0,1-.55-.55V72.795a.58.58,0,0,1,.147-.413.526.526,0,0,1,.4-.157h1.671a.572.572,0,0,1,.57.413l.668,3.067a7.537,7.537,0,0,1,2.624-2.821,6.5,6.5,0,0,1,3.548-1.071,6.676,6.676,0,0,1,2.349.462,8.371,8.371,0,0,1,2.231,1.248.525.525,0,0,1,.216.452" transform="translate(-773.865 -55.75)" fill="#484848"></path><path id="Path_25905" data-name="Path 25905" d="M1082.351,72.313a.581.581,0,0,1,.147.413V91.538a.579.579,0,0,1-.147.413.526.526,0,0,1-.4.157h-1.671a.593.593,0,0,1-.57-.413L1079,88.432a8.874,8.874,0,0,1-3.195,2.988,8.785,8.785,0,0,1-4.3,1.062,9.231,9.231,0,0,1-4.924-1.357A9.651,9.651,0,0,1,1063.1,87.4a10.891,10.891,0,0,1-1.278-5.259,11.146,11.146,0,0,1,1.268-5.327,9.564,9.564,0,0,1,3.48-3.735,9.232,9.232,0,0,1,4.924-1.357,8.777,8.777,0,0,1,4.3,1.071,8.938,8.938,0,0,1,3.2,3l.708-3.224a.571.571,0,0,1,.57-.413h1.671a.527.527,0,0,1,.4.157m-6.841,15.451a6.534,6.534,0,0,0-.02-11.323,6.489,6.489,0,0,0-3.293-.865,6.257,6.257,0,0,0-3.224.865,6.392,6.392,0,0,0-2.339,2.369,6.524,6.524,0,0,0-.865,3.312,6.38,6.38,0,0,0,.875,3.283A6.46,6.46,0,0,0,1069,87.764a6.272,6.272,0,0,0,3.214.865,6.487,6.487,0,0,0,3.293-.865" transform="translate(-824.327 -55.681)" fill="#484848"></path><path id="Path_25906" data-name="Path 25906" d="M1178.212,29.432V58.349a.48.48,0,0,1-.531.531h-2.87a.469.469,0,0,1-.531-.531V29.432q0-.511.531-.511h2.87q.531,0,.531.511" transform="translate(-911.635 -22.452)" fill="#484848"></path><path id="Path_25907" data-name="Path 25907" d="M1226.59,72.313a.581.581,0,0,1,.147.413V91.538a.579.579,0,0,1-.147.413.526.526,0,0,1-.4.157h-1.671a.593.593,0,0,1-.57-.413l-.708-3.263a8.725,8.725,0,0,1-7.49,4.05,9.232,9.232,0,0,1-4.924-1.357,9.654,9.654,0,0,1-3.489-3.725,10.894,10.894,0,0,1-1.278-5.259,11.146,11.146,0,0,1,1.268-5.327,9.565,9.565,0,0,1,3.479-3.735,9.232,9.232,0,0,1,4.924-1.357,8.778,8.778,0,0,1,4.305,1.071,8.936,8.936,0,0,1,3.2,3l.708-3.224a.571.571,0,0,1,.57-.413h1.671a.527.527,0,0,1,.4.157m-6.841,15.451a6.534,6.534,0,0,0-.02-11.323,6.489,6.489,0,0,0-3.293-.865,6.258,6.258,0,0,0-3.224.865,6.393,6.393,0,0,0-2.339,2.369,6.523,6.523,0,0,0-.865,3.312,6.378,6.378,0,0,0,.875,3.283,6.458,6.458,0,0,0,2.359,2.359,6.271,6.271,0,0,0,3.214.865,6.487,6.487,0,0,0,3.293-.865" transform="translate(-936.305 -55.681)" fill="#484848"></path><path id="Path_25908" data-name="Path 25908" d="M38.489,48.312H9.822A9.822,9.822,0,0,1,0,38.489V9.822A9.822,9.822,0,0,1,9.822,0H38.489a9.822,9.822,0,0,1,9.822,9.822V38.489a9.822,9.822,0,0,1-9.822,9.822" fill="#006aff"></path><path id="Path_25909" data-name="Path 25909" d="M53.931,32.009,67.942,40.1l1.136.656v8.689l-4.51-2.6v-3.5L52.812,36.549,41.056,43.336V60.37H64.568V51.943l4.51,2.6V64.881H36.546V40.754l1.136-.656,14.011-8.089,1.119-.646Z" transform="translate(-28.372 -24.348)" fill="#fff"></path><path id="Path_25910" data-name="Path 25910" d="M53.931,93.676l6.391,3.69,7.62,4.4,1.136.656v10.334H36.546V102.422l1.136-.656,3.374-1.948v8.427H64.568V105L52.812,98.216l-7.335,4.235V97.266l6.217-3.589,1.119-.646Z" transform="translate(-28.372 -72.223)" fill="#fff"></path></g></svg>